<svg width="30" height="30" viewBox="0 0 30 30" fill="none" xmlns="http://www.w3.org/2000/svg">
<path fill-rule="evenodd" clip-rule="evenodd" d="M4.12316 22.5L4.09091 12.2727H0V8.18182H4.09091V5.625C4.09091 1.82925 6.44146 0 9.82753 0C11.4495 0 12.8435 0.120753 13.2497 0.174733V4.14151L10.9013 4.14258C9.05978 4.14258 8.70321 5.01764 8.70321 6.30175V8.18182H14.0625L12.017 12.2727H8.70321V22.5H4.12316Z" transform="translate(7.5 3.75)" fill="#3B5998"/>
<mask id="mask0" mask-type="alpha" maskUnits="userSpaceOnUse" x="7" y="3" width="15" height="24">
<path fill-rule="evenodd" clip-rule="evenodd" d="M4.12316 22.5L4.09091 12.2727H0V8.18182H4.09091V5.625C4.09091 1.82925 6.44146 0 9.82753 0C11.4495 0 12.8435 0.120753 13.2497 0.174733V4.14151L10.9013 4.14258C9.05978 4.14258 8.70321 5.01764 8.70321 6.30175V8.18182H14.0625L12.017 12.2727H8.70321V22.5H4.12316Z" transform="translate(7.5 3.75)" fill="white"/>
</mask>
<g mask="url(#mask0)">
<path fill-rule="evenodd" clip-rule="evenodd" d="M0 0H30V30H0V0Z" fill="#021F31"/>
</g>
</svg>
