<svg width="100" height="100" viewBox="0 0 100 100" fill="none" xmlns="http://www.w3.org/2000/svg">
<path fill-rule="evenodd" clip-rule="evenodd" d="M52.2529 9.44531C56.4229 13.8066 59.0156 19 60.126 24.9297C60.6221 27.5781 60.6084 30.2539 60.5947 32.9297C60.5918 33.4453 60.5889 33.959 60.5898 34.4746L60.5889 35.0312C60.5908 35.332 60.5098 35.5996 60.1582 35.5898C59.8086 35.582 59.7383 35.3086 59.7422 35.0117L59.7441 34.6562C59.7354 33.9648 59.7383 33.2734 59.7422 32.5801L59.7432 32.4395C59.7559 30.4258 59.7686 28.4121 59.4922 26.4082C58.6924 20.6172 56.3984 15.4922 52.5791 11.0723C48.7002 6.58398 43.8896 3.52148 38.1738 1.91992C34.3223 0.841797 30.4043 0.583008 26.4326 1.10352C22.4961 1.62012 18.8115 2.88184 15.4053 4.90332C10.7148 7.68848 7.03613 11.4746 4.42383 16.2754C2.02637 20.6797 0.855469 25.3945 0.855469 30.4062V31.6348C0.854492 32.8633 0.854492 34.0938 0.857422 35.3203C0.858398 35.627 0.844727 35.9492 0.462891 35.9629C0.0488281 35.9805 0.0107422 35.6504 0.0117188 35.3203C0.0146484 34.4395 0.0146484 33.5586 0.0136719 32.4824V31.2305C-0.0800781 28.168 0.314453 24.6816 1.3877 21.2773C3.14941 15.6904 6.27148 11.002 10.7188 7.20508C14.3896 4.07227 18.5879 1.94336 23.2861 0.826172C27.2275 -0.110352 31.2041 -0.25293 35.2012 0.410156C41.8906 1.51953 47.5781 4.55566 52.2529 9.44531ZM33.373 8.13281C38.9004 8.86719 43.6123 11.2529 47.4521 15.2783C51.4619 19.4805 53.7051 24.5098 53.9717 30.3242C54.0723 32.498 54.042 34.6797 54.0117 36.8594C53.999 37.7383 53.9873 38.6152 53.9834 39.4941V41.5137C53.9844 43.9824 53.9844 46.4512 53.9785 48.918C53.9775 49.2891 53.9502 49.6699 53.8535 50.0215C53.8213 50.1387 53.708 50.2285 53.5918 50.3223L53.5781 50.334C53.5225 50.377 53.4668 50.4219 53.4189 50.4688C53.377 50.416 53.3242 50.3633 53.2715 50.3105C53.1572 50.1973 53.0439 50.084 53.0449 49.9727C53.0791 44.1133 53.126 38.2539 53.1963 32.3945C53.2266 29.8594 52.9482 27.375 52.1855 24.9512C50.6338 20.0176 47.7402 16.0557 43.5605 13.0176C39.8701 10.335 35.709 8.95508 31.1953 8.78516C25.4219 8.56836 20.2344 10.3096 15.7695 14.0117C11.1074 17.877 8.37793 22.8496 7.58789 28.8496C7.43066 30.0449 7.42676 31.2637 7.42285 32.4746L7.4209 33.0469C7.40723 35.2559 7.41406 37.4629 7.4209 39.6719L7.42773 42.3223L7.42969 46.0547V47.0781C7.42969 47.9316 7.42969 48.7852 7.43457 49.6367C7.43652 49.9453 7.41211 50.2617 7.03711 50.2773C6.62793 50.2949 6.57227 49.9668 6.5791 49.6387L6.6084 48.4551C6.62988 47.6523 6.65137 46.8496 6.64844 46.0469C6.64355 44.6035 6.62988 43.1602 6.61523 41.7148L6.61133 41.3457L6.60742 41.0098C6.57129 37.623 6.53516 34.2363 6.60352 30.8516C6.70898 25.5488 8.54785 20.8223 11.9004 16.6982C14.9727 12.9209 18.8525 10.335 23.502 8.9209C26.7285 7.93848 30.0283 7.68848 33.373 8.13281ZM38.5605 18.0156C36.6875 16.9453 34.6914 16.2715 32.5566 16C28.334 15.4639 24.4297 16.3613 20.8662 18.6816C18.5645 20.1816 16.751 22.1465 15.3818 24.5391C13.9043 27.1191 13.1357 29.8828 13.1338 32.8477C13.1289 37.4766 13.1504 42.1035 13.1719 46.7305L13.1729 47.1094V47.1387C13.1758 48.0156 13.1787 48.8945 13.2695 49.7637C13.5537 52.5039 14.4238 55.0645 15.7979 57.4492C15.8896 57.6094 16.2383 57.7637 16.3975 57.709C16.7207 57.6016 16.665 57.2949 16.5225 57.0312L16.3506 56.7207C15.0195 54.2852 14.1602 51.6895 14.0537 48.918C13.9844 47.0723 13.999 45.2188 14.0137 43.3691V43.3066L14.0146 43.2441L14.0156 43.1816C14.0234 42.3418 14.0312 41.5 14.0312 40.6602L13.959 40.6582L13.9531 38.1973L13.9521 38.0508L13.9512 37.9004V37.7441C13.9463 36.0781 13.9414 34.416 13.9658 32.7539C14.0234 28.8945 15.2842 25.4238 17.8066 22.5293C21.6807 18.082 26.6143 16.1318 32.5137 16.8535C40.3242 17.8086 46.5254 24.7188 46.6172 32.5801C46.6475 35.1387 46.6455 37.6953 46.6436 40.2539V40.4727C46.6416 42.2168 46.6406 43.9609 46.6484 45.7051C46.6592 47.9434 46.1787 50.0488 45.1592 52.0469C41.96 58.3184 33.8848 60.9531 27.6777 57.6348C23.0303 55.1504 20.6006 51.1992 20.5254 45.8984C20.4863 43.2012 20.498 40.502 20.5098 37.8027L20.5195 35.2539C20.5205 34.5469 20.5225 33.834 20.6113 33.1328C21.4277 26.707 28.2354 22.8027 34.166 25.4375C37.9551 27.1211 39.9609 30.1621 40.083 34.3066C40.167 37.1484 40.1387 39.9902 40.1094 42.834L40.1084 42.9062L40.0918 44.5957C40.085 45.2715 39.9697 45.9707 39.7695 46.6172C38.9336 49.3184 36.1934 51.3672 33.0918 51.125C30.4941 50.9219 28.1504 49.0723 27.3662 46.584C27.043 45.5547 27.0518 44.5059 27.0605 43.457L27.0635 42.918L27.0605 41.2969C27.0557 39.4219 27.0518 37.5449 27.082 35.6699C27.1045 34.2812 27.8447 33.293 29.1094 32.7812C30.2168 32.332 31.3086 32.4297 32.2139 33.3086C32.9385 34.0137 33.1504 34.918 33.1475 35.9004C33.1396 38.084 33.1416 40.2676 33.1436 42.4492V42.9941C33.1445 43.3086 33.168 43.6504 33.5977 43.6406C34.0029 43.6328 33.9961 43.3105 33.9961 43.0117L33.9971 40.9844C33.999 39.6328 34.001 38.2812 33.9932 36.9297L33.9922 36.6152C33.9922 36.0098 33.9922 35.4004 33.8936 34.8105C33.5352 32.6543 31.7207 31.4004 29.5762 31.7656C27.6875 32.0859 26.2383 33.748 26.2266 35.666C26.2109 38.1777 26.2178 40.6875 26.2256 43.1992L26.2266 43.4883L26.2285 44.0273C26.2305 44.5996 26.2354 45.1797 26.3174 45.7441C26.793 49.0371 29.5391 51.6387 32.8203 51.9336C36.2686 52.2461 39.4004 50.2461 40.5322 47.0723C40.9248 45.9727 40.9297 44.8457 40.9355 43.7207L40.9395 43.2383C40.9746 40.2988 40.9707 37.3574 40.9443 34.418C40.8848 27.6172 34.8135 22.6777 28.1484 23.9863C23.1934 24.9609 19.667 29.3672 19.6621 34.6016C19.6582 38.2852 19.6543 41.9668 19.6699 45.6504C19.6738 46.4062 19.7148 47.1719 19.8213 47.9199C20.8564 55.209 27.2832 60.3984 34.5762 59.8535C41.8721 59.3086 47.457 53.3477 47.4932 46.0371L47.5107 43.2129L47.5117 43.125L47.5127 43.0352L47.5137 42.9473L47.5146 42.8574L47.5156 42.7656L47.5166 42.6738L47.5176 42.582C47.5352 39.377 47.5537 36.166 47.4736 32.9629C47.3057 26.3457 44.3477 21.3262 38.5605 18.0156ZM22.8291 58.957C19.4932 55.9922 17.5752 52.2871 17.3096 47.834C17.2061 46.1035 17.2324 44.3672 17.2588 42.6289C17.2705 41.8477 17.2822 41.0664 17.2822 40.2852H17.25C17.25 39.5645 17.2432 38.8438 17.2354 38.123C17.2197 36.5312 17.2041 34.9375 17.2656 33.3457C17.4531 28.4941 19.6768 24.7383 23.8906 22.3828C28.5947 19.7539 33.3477 20.0039 37.8008 23.0645C41.2646 25.4453 43.1748 28.8652 43.3311 33.0625C43.4619 36.5469 43.4199 40.0371 43.377 43.5273L43.3535 45.5527C43.3057 50.209 39.7363 54.2695 35.1387 54.9922C29.2324 55.918 23.833 51.3594 23.7891 45.3848C23.7715 42.9023 23.7773 40.418 23.7832 37.9355L23.7891 34.8945C23.7891 34.7266 23.7959 34.5566 23.8193 34.3887C24.2402 31.3945 26.1816 29.3301 29.1904 28.6797L29.209 28.6758C29.5127 28.6094 29.832 28.5391 29.7344 28.1191C29.6445 27.7324 29.3174 27.7891 29.0303 27.8379C25.627 28.3945 22.9795 31.4746 22.9609 34.9355C22.9434 38.416 22.9453 41.8965 22.9648 45.375C22.9688 46.0449 23.0449 46.7246 23.167 47.3848C24.1699 52.8145 29.5098 56.6426 34.9658 55.8613C40.3682 55.0859 44.2109 50.6621 44.2148 45.1895C44.2148 44.4707 44.1963 43.752 44.1768 43.0332C44.1572 42.2891 44.1377 41.5469 44.1396 40.8027C44.1426 39.6992 44.1602 38.5957 44.1777 37.4902C44.1934 36.4863 44.209 35.4805 44.2139 34.4746C44.2178 33.6328 44.21 32.7812 44.1045 31.9473C43.1406 24.3242 36.0703 18.9043 28.4561 19.9277C21.5771 20.8516 16.4102 26.7344 16.3975 33.6699L16.3955 34.7539C16.3877 38.7324 16.3809 42.7109 16.4004 46.6914C16.4248 51.3477 18.0918 55.3496 21.3135 58.7051C21.7441 59.1543 22.2148 59.5723 22.708 59.9512C22.7988 60.0215 22.96 60.002 23.1211 59.9824C23.1943 59.9727 23.2676 59.9629 23.334 59.9629L23.3164 59.7988L23.3135 59.7656C23.3008 59.6152 23.2891 59.4648 23.2285 59.3379C23.1787 59.2305 23.0752 59.1504 22.9707 59.0703L22.959 59.0605C22.9141 59.0273 22.8701 58.9922 22.8291 58.957ZM50.751 35.3652C50.7422 34.8418 50.7432 34.3145 50.7451 33.7891V33.7676C50.748 32.4043 50.751 31.0371 50.5732 29.6992C49.749 23.502 46.6045 18.7031 41.4541 15.1973C39.9941 14.2031 38.3721 13.5137 36.7236 12.9395C33.3359 11.7598 29.8467 11.5742 26.333 12.2812C21.5742 13.2383 17.627 15.5947 14.5332 19.3379C11.5479 22.9512 9.96875 27.1133 9.86816 31.8027C9.82324 33.8809 9.83105 35.9609 9.83984 38.041L9.8457 40.0117C9.84668 40.4805 9.86035 40.9473 9.87402 41.416C9.8877 41.875 9.90137 42.3359 9.90234 42.7949C9.90332 43.2617 9.89258 43.7285 9.88184 44.1953C9.87109 44.6523 9.86035 45.1094 9.86035 45.5664C9.86133 45.959 9.87402 46.3535 9.88672 46.7461C9.90723 47.3457 9.92676 47.9434 9.90332 48.541C9.83301 50.334 10.1514 52.0703 10.5439 53.8008C10.6094 54.0898 10.7461 54.3359 11.0889 54.2578C11.4307 54.1816 11.4521 53.9062 11.3789 53.6133C10.8369 51.4375 10.6289 49.2324 10.6816 46.9902C10.7129 45.6484 10.7051 44.3066 10.6973 42.9648L10.6953 42.6074L10.6904 41.1699C10.6904 40.2031 10.6865 39.2363 10.6816 38.2715C10.6719 36.1289 10.6621 33.9863 10.7041 31.8457C10.7939 27.3281 12.333 23.3145 15.207 19.8418C21.2354 12.5605 31.5361 10.6279 39.7373 15.1572L40.001 15.3027C40.7168 15.6963 41.4355 16.0918 42.1016 16.5596C42.4746 16.8213 42.7988 17.1504 43.124 17.4805L43.1572 17.5137C43.293 17.6523 43.4297 17.791 43.5693 17.9219C47.7188 21.8281 49.8613 26.6328 49.916 32.3281C49.9463 35.457 49.9414 38.5879 49.9355 41.7168L49.9346 42.5098C49.9326 43.8281 49.9307 45.1484 49.9326 46.4688C49.9365 49.3633 49.2705 52.0859 47.8594 54.6191C47.6992 54.9043 47.5625 55.1973 47.9307 55.4023C48.2861 55.6016 48.4541 55.3086 48.5938 55.0547C49.8779 52.709 50.6709 50.209 50.7275 47.5273C50.7656 45.7109 50.7578 43.8965 50.75 42.0762V41.9629L50.749 41.8535C50.7441 41.0254 50.7402 40.1973 50.7402 39.3691H50.7559L50.7598 38.1406C50.7637 37.2148 50.7676 36.291 50.751 35.3652ZM57.1367 28.1758C57.1807 28.0098 57.1484 27.8203 57.1172 27.6367L57.0918 27.4746C56.4043 22.418 54.5469 17.832 51.2324 13.9512C44.1748 5.6875 35.2285 2.5752 24.5557 4.60059C21.123 5.25195 17.9893 6.6875 15.1016 8.69141C13.6641 9.68945 12.333 10.7881 11.0928 12.0078C10.625 12.4678 10.1797 12.9561 9.77734 13.4717C9.68164 13.5938 9.76074 13.8975 9.84082 14.0811C9.86621 14.1396 10.2881 14.124 10.3057 14.0703C10.3809 13.8379 10.5537 13.709 10.7266 13.582C10.8213 13.5117 10.915 13.4414 10.9922 13.3555C12.3037 11.8936 13.7588 10.5928 15.3838 9.48047C19.874 6.40723 24.8359 4.85059 30.2842 4.70605C30.7744 4.75977 31.2656 4.80566 31.7578 4.85156C32.8291 4.9502 33.9004 5.0498 34.957 5.2334C38.6689 5.87598 42.0879 7.28809 45.167 9.46289C50.8779 13.498 54.4941 18.9336 55.9395 25.7891C56.0273 26.2031 56.0889 26.6191 56.1504 27.0391L56.1553 27.0703L56.165 27.1348L56.1748 27.1992L56.1846 27.2637C56.2324 27.5879 56.2812 27.9141 56.3467 28.2344C56.3691 28.3438 56.4844 28.4375 56.5996 28.5293L56.6328 28.5566C56.6738 28.5898 56.7139 28.623 56.7471 28.6562C56.7891 28.6074 56.8369 28.5605 56.8848 28.5137C56.9941 28.4082 57.1035 28.3027 57.1367 28.1758ZM32.0283 27.9375C35.127 28.6328 37.54 31.5078 37.6416 34.6914C37.6758 35.7715 37.667 36.8535 37.6582 37.9355C37.6543 38.4258 37.6504 38.9141 37.6504 39.4023L37.6621 40.8828C37.6699 41.9785 37.6777 43.0723 37.6475 44.1641C37.5723 46.9453 34.541 48.834 32.0225 47.668C30.5615 46.9922 29.9424 45.7109 29.9072 44.1855C29.8662 42.4629 29.8711 40.7383 29.876 39.0137C29.8789 38.2207 29.8809 37.4277 29.8789 36.6348C29.8779 36.3301 29.957 36.0625 30.2998 36.0645C30.6729 36.0645 30.7412 36.3633 30.7412 36.6758L30.7402 38.2617C30.7383 40.1484 30.7363 42.0352 30.749 43.9219C30.751 44.3379 30.7998 44.7715 30.9268 45.166C31.2803 46.2656 32.0146 47.002 33.1914 47.1465C34.4531 47.3027 35.4707 46.8086 36.2236 45.791C36.6387 45.2305 36.8232 44.5879 36.8232 43.8906C36.8232 42.9844 36.8262 42.0781 36.8301 41.1719C36.8369 39.1738 36.8438 37.1758 36.8164 35.1777C36.7725 31.9727 34.8936 29.6074 31.7939 28.752C31.4922 28.6699 31.2061 28.584 31.293 28.2012C31.3857 27.791 31.6953 27.8613 31.9814 27.9277L32.0283 27.9375ZM8.91895 15.9004C8.99023 15.7998 8.9834 15.6445 8.97656 15.4893C8.97363 15.416 8.9707 15.3428 8.97559 15.2754C8.91699 15.2822 8.85352 15.2832 8.79004 15.2842H8.7666C8.60742 15.2852 8.44727 15.2861 8.35059 15.3652C8.11035 15.5615 7.91699 15.8398 7.76367 16.1162L7.30762 16.9316C6.74707 17.9297 6.18652 18.9277 5.68652 19.9551C4.16504 23.082 3.3916 26.418 3.33203 29.875C3.27246 33.3516 3.2832 36.832 3.29492 40.3105C3.2998 41.7793 3.30469 43.2461 3.30371 44.7129L3.29883 44.8145C3.29199 44.9062 3.28516 45 3.32617 45.0605C3.40918 45.1855 3.56055 45.3516 3.67676 45.3477C3.82324 45.3438 4.00586 45.2109 4.09375 45.0801C4.14941 44.998 4.14258 44.873 4.13574 44.75L4.13184 44.6367L4.13379 36.8379L4.13086 35.0957L4.12891 33.5469V33.5039C4.11719 31.002 4.10547 28.5039 4.60352 26.0332C5.34473 22.3555 6.73926 18.9648 8.91895 15.9004ZM57.3135 31.7793C57.3145 33.6328 57.3154 35.4844 57.3203 37.3379V43.8223C57.3203 43.8574 57.3242 43.8965 57.3281 43.9355C57.3369 44.0234 57.3457 44.1094 57.3096 44.1699C57.2324 44.2969 57.1289 44.4102 57.0264 44.5215L56.9072 44.6543L56.7793 44.5273C56.6729 44.4219 56.5664 44.3184 56.4854 44.1953C56.4473 44.1367 56.4561 44.0469 56.4639 43.957C56.4678 43.9199 56.4717 43.8809 56.4717 43.8457L56.4629 30.8281L56.458 30.7051C56.4512 30.5879 56.4443 30.4668 56.4932 30.3809C56.5723 30.2402 56.7559 30.0527 56.874 30.0664C57.0264 30.084 57.1963 30.2559 57.2861 30.4062C57.3359 30.4883 57.3281 30.6074 57.3193 30.7246L57.3135 30.8535V31.7793Z" transform="translate(20 20)" fill="#01BEDB" stroke="#01BEDB"/>
</svg>
