<svg width="30" height="30" viewBox="0 0 30 30" fill="none" xmlns="http://www.w3.org/2000/svg">
<path fill-rule="evenodd" clip-rule="evenodd" d="M16.25 5C17.6309 5 18.75 3.88086 18.75 2.5C18.75 1.11914 17.6309 0 16.25 0C14.8691 0 13.75 1.11914 13.75 2.5C13.75 3.20312 14.041 3.83984 14.5088 4.29297C14.959 4.73047 15.5732 5 16.25 5ZM0 15.625C0 20.8027 4.19727 25 9.375 25C14.5527 25 18.75 20.8027 18.75 15.625C18.75 10.4473 14.5527 6.25 9.375 6.25C4.19727 6.25 0 10.4473 0 15.625ZM15 15.625C15 18.7324 12.4814 21.25 9.375 21.25C6.26855 21.25 3.75 18.7324 3.75 15.625C3.75 12.5176 6.26855 10 9.375 10C12.4814 10 15 12.5176 15 15.625ZM5 2.5C5 3.88086 3.88086 5 2.5 5C1.79199 5 1.15332 4.70508 0.698242 4.23242C0.265625 3.7832 0 3.17383 0 2.5C0 1.11914 1.11914 0 2.5 0C3.29785 0 4.00781 0.373047 4.46582 0.955078C4.80078 1.38086 5 1.91602 5 2.5Z" transform="translate(6.25 2.5)" fill="#979797"/>
<mask id="mask0" mask-type="alpha" maskUnits="userSpaceOnUse" x="6" y="2" width="19" height="26">
<path fill-rule="evenodd" clip-rule="evenodd" d="M16.25 5C17.6309 5 18.75 3.88086 18.75 2.5C18.75 1.11914 17.6309 0 16.25 0C14.8691 0 13.75 1.11914 13.75 2.5C13.75 3.20312 14.041 3.83984 14.5088 4.29297C14.959 4.73047 15.5732 5 16.25 5ZM0 15.625C0 20.8027 4.19727 25 9.375 25C14.5527 25 18.75 20.8027 18.75 15.625C18.75 10.4473 14.5527 6.25 9.375 6.25C4.19727 6.25 0 10.4473 0 15.625ZM15 15.625C15 18.7324 12.4814 21.25 9.375 21.25C6.26855 21.25 3.75 18.7324 3.75 15.625C3.75 12.5176 6.26855 10 9.375 10C12.4814 10 15 12.5176 15 15.625ZM5 2.5C5 3.88086 3.88086 5 2.5 5C1.79199 5 1.15332 4.70508 0.698242 4.23242C0.265625 3.7832 0 3.17383 0 2.5C0 1.11914 1.11914 0 2.5 0C3.29785 0 4.00781 0.373047 4.46582 0.955078C4.80078 1.38086 5 1.91602 5 2.5Z" transform="translate(6.25 2.5)" fill="white"/>
</mask>
<g mask="url(#mask0)">
<path fill-rule="evenodd" clip-rule="evenodd" d="M0 0H30V30H0V0Z" fill="#021F31"/>
</g>
</svg>
