<svg width="30" height="30" viewBox="0 0 30 30" fill="none" xmlns="http://www.w3.org/2000/svg">
<path fill-rule="evenodd" clip-rule="evenodd" d="M0 1C0 0.447266 0.447266 0 1 0H24C24.3613 0 24.6768 0.191406 24.8525 0.476562C24.9463 0.628906 25 0.808594 25 1V7.5L13.4287 11.2461C12.832 11.4434 12.168 11.4434 11.5713 11.2461L0 7.5V1ZM0 9.49219V16.5C0 17.0527 0.447266 17.5 1 17.5H24C24.5527 17.5 25 17.0527 25 16.5V9.49219L14.3574 13.166C13.165 13.5605 11.835 13.5605 10.6426 13.166L0 9.49219Z" transform="translate(2.5 6.25)" fill="#979797"/>
<mask id="mask0" mask-type="alpha" maskUnits="userSpaceOnUse" x="2" y="6" width="26" height="18">
<path fill-rule="evenodd" clip-rule="evenodd" d="M0 1C0 0.447266 0.447266 0 1 0H24C24.3613 0 24.6768 0.191406 24.8525 0.476562C24.9463 0.628906 25 0.808594 25 1V7.5L13.4287 11.2461C12.832 11.4434 12.168 11.4434 11.5713 11.2461L0 7.5V1ZM0 9.49219V16.5C0 17.0527 0.447266 17.5 1 17.5H24C24.5527 17.5 25 17.0527 25 16.5V9.49219L14.3574 13.166C13.165 13.5605 11.835 13.5605 10.6426 13.166L0 9.49219Z" transform="translate(2.5 6.25)" fill="white"/>
</mask>
<g mask="url(#mask0)">
<path fill-rule="evenodd" clip-rule="evenodd" d="M0 0H30V30H0V0Z" fill="#021F31"/>
</g>
</svg>
