<svg width="30" height="30" viewBox="0 0 30 30" fill="none" xmlns="http://www.w3.org/2000/svg">
<path fill-rule="evenodd" clip-rule="evenodd" d="M1.04167 8.33398H15.625C16.2003 8.33398 16.6667 8.80035 16.6667 9.37565C16.6667 9.95095 16.2003 10.4173 15.625 10.4173H1.04167C0.46637 10.4173 0 9.95095 0 9.37565C0 8.80035 0.46637 8.33398 1.04167 8.33398ZM1.04167 0H23.9583C24.5336 0 25 0.46637 25 1.04167C25 1.61696 24.5336 2.08333 23.9583 2.08333H1.04167C0.46637 2.08333 0 1.61696 0 1.04167C0 0.46637 0.46637 0 1.04167 0Z" transform="translate(2.5 10)" fill="#D8D8D8"/>
<mask id="mask0" mask-type="alpha" maskUnits="userSpaceOnUse" x="2" y="10" width="26" height="11">
<path fill-rule="evenodd" clip-rule="evenodd" d="M1.04167 8.33398H15.625C16.2003 8.33398 16.6667 8.80035 16.6667 9.37565C16.6667 9.95095 16.2003 10.4173 15.625 10.4173H1.04167C0.46637 10.4173 0 9.95095 0 9.37565C0 8.80035 0.46637 8.33398 1.04167 8.33398ZM1.04167 0H23.9583C24.5336 0 25 0.46637 25 1.04167C25 1.61696 24.5336 2.08333 23.9583 2.08333H1.04167C0.46637 2.08333 0 1.61696 0 1.04167C0 0.46637 0.46637 0 1.04167 0Z" transform="translate(2.5 10)" fill="white"/>
</mask>
<g mask="url(#mask0)">
<path fill-rule="evenodd" clip-rule="evenodd" d="M0 0H30V30H0V0Z" fill="#021F31"/>
</g>
</svg>
