<svg width="30" height="30" viewBox="0 0 30 30" fill="none" xmlns="http://www.w3.org/2000/svg">
<path fill-rule="evenodd" clip-rule="evenodd" d="M4 4.5C4.60742 4.04297 5 3.31836 5 2.5C5 1.54102 4.45996 0.707031 3.66699 0.287109C3.31836 0.103516 2.92188 0 2.5 0C1.11914 0 0 1.11914 0 2.5C0 3.88086 1.11914 5 2.5 5C3.0625 5 3.58203 4.81445 4 4.5ZM12.5 5C13.2266 5 13.8809 4.69141 14.3379 4.19531C14.749 3.75 15 3.1543 15 2.5C15 2.25586 14.9648 2.01953 14.8994 1.79688C14.8398 1.5918 14.7539 1.39648 14.6465 1.2168C14.21 0.488281 13.4121 0 12.5 0C11.8311 0 11.2236 0.263672 10.7754 0.691406C10.5664 0.890625 10.3926 1.125 10.2627 1.38477C10.0947 1.7207 10 2.09961 10 2.5C10 3.88086 11.1191 5 12.5 5ZM25 2.5C25 3.88086 23.8809 5 22.5 5C21.1191 5 20 3.88086 20 2.5C20 1.84375 20.2529 1.24609 20.667 0.800781C21.123 0.308594 21.7754 0 22.5 0C23.8809 0 25 1.11914 25 2.5ZM2.5 15C3.88086 15 5 13.8809 5 12.5C5 11.1191 3.88086 10 2.5 10C1.11914 10 0 11.1191 0 12.5C0 13.8809 1.11914 15 2.5 15ZM15 12.5C15 13.8809 13.8809 15 12.5 15C11.1191 15 10 13.8809 10 12.5C10 11.1191 11.1191 10 12.5 10C12.9033 10 13.2842 10.0957 13.6221 10.2656C14.4395 10.6758 15 11.5234 15 12.5ZM22.5 15C23.8809 15 25 13.8809 25 12.5C25 11.1191 23.8809 10 22.5 10C21.1191 10 20 11.1191 20 12.5C20 13.8809 21.1191 15 22.5 15ZM5 22.5C5 23.8809 3.88086 25 2.5 25C1.11914 25 0 23.8809 0 22.5C0 21.1191 1.11914 20 2.5 20C3.88086 20 5 21.1191 5 22.5ZM12.5 25C13.8809 25 15 23.8809 15 22.5C15 21.1191 13.8809 20 12.5 20C11.1191 20 10 21.1191 10 22.5C10 23.1582 10.2539 23.7559 10.6689 24.2031C11.125 24.6934 11.7764 25 12.5 25ZM25 22.5C25 23.8809 23.8809 25 22.5 25C21.1191 25 20 23.8809 20 22.5C20 21.1191 21.1191 20 22.5 20C23.8809 20 25 21.1191 25 22.5Z" transform="translate(2.5 2.5)" fill="#D8D8D8"/>
<mask id="mask0" mask-type="alpha" maskUnits="userSpaceOnUse" x="2" y="2" width="26" height="26">
<path fill-rule="evenodd" clip-rule="evenodd" d="M4 4.5C4.60742 4.04297 5 3.31836 5 2.5C5 1.54102 4.45996 0.707031 3.66699 0.287109C3.31836 0.103516 2.92188 0 2.5 0C1.11914 0 0 1.11914 0 2.5C0 3.88086 1.11914 5 2.5 5C3.0625 5 3.58203 4.81445 4 4.5ZM12.5 5C13.2266 5 13.8809 4.69141 14.3379 4.19531C14.749 3.75 15 3.1543 15 2.5C15 2.25586 14.9648 2.01953 14.8994 1.79688C14.8398 1.5918 14.7539 1.39648 14.6465 1.2168C14.21 0.488281 13.4121 0 12.5 0C11.8311 0 11.2236 0.263672 10.7754 0.691406C10.5664 0.890625 10.3926 1.125 10.2627 1.38477C10.0947 1.7207 10 2.09961 10 2.5C10 3.88086 11.1191 5 12.5 5ZM25 2.5C25 3.88086 23.8809 5 22.5 5C21.1191 5 20 3.88086 20 2.5C20 1.84375 20.2529 1.24609 20.667 0.800781C21.123 0.308594 21.7754 0 22.5 0C23.8809 0 25 1.11914 25 2.5ZM2.5 15C3.88086 15 5 13.8809 5 12.5C5 11.1191 3.88086 10 2.5 10C1.11914 10 0 11.1191 0 12.5C0 13.8809 1.11914 15 2.5 15ZM15 12.5C15 13.8809 13.8809 15 12.5 15C11.1191 15 10 13.8809 10 12.5C10 11.1191 11.1191 10 12.5 10C12.9033 10 13.2842 10.0957 13.6221 10.2656C14.4395 10.6758 15 11.5234 15 12.5ZM22.5 15C23.8809 15 25 13.8809 25 12.5C25 11.1191 23.8809 10 22.5 10C21.1191 10 20 11.1191 20 12.5C20 13.8809 21.1191 15 22.5 15ZM5 22.5C5 23.8809 3.88086 25 2.5 25C1.11914 25 0 23.8809 0 22.5C0 21.1191 1.11914 20 2.5 20C3.88086 20 5 21.1191 5 22.5ZM12.5 25C13.8809 25 15 23.8809 15 22.5C15 21.1191 13.8809 20 12.5 20C11.1191 20 10 21.1191 10 22.5C10 23.1582 10.2539 23.7559 10.6689 24.2031C11.125 24.6934 11.7764 25 12.5 25ZM25 22.5C25 23.8809 23.8809 25 22.5 25C21.1191 25 20 23.8809 20 22.5C20 21.1191 21.1191 20 22.5 20C23.8809 20 25 21.1191 25 22.5Z" transform="translate(2.5 2.5)" fill="white"/>
</mask>
<g mask="url(#mask0)">
<path fill-rule="evenodd" clip-rule="evenodd" d="M0 0H30V30H0V0Z" fill="#021F31"/>
</g>
</svg>
