<svg width="30" height="30" viewBox="0 0 30 30" fill="none" xmlns="http://www.w3.org/2000/svg">
<path fill-rule="evenodd" clip-rule="evenodd" d="M25 2.39583C24.0625 2.8125 23.125 3.125 22.0833 3.22917C23.125 2.60417 23.9583 1.5625 24.375 0.416667C23.3333 1.04167 22.2917 1.45833 21.1458 1.66667C20.2083 0.625 18.8542 0 17.3958 0C14.5833 0 12.2917 2.29167 12.2917 5.10417C12.2917 5.52083 12.2917 5.9375 12.3958 6.25C8.02083 6.04167 4.27083 3.95833 1.77083 0.833333C1.25 1.66667 1.04167 2.5 1.04167 3.4375C1.04167 5.20833 1.97917 6.77083 3.33333 7.70833C2.5 7.70833 1.66667 7.5 1.04167 7.08333C1.04167 7.08333 1.04167 7.08333 1.04167 7.1875C1.04167 9.6875 2.8125 11.7708 5.10417 12.1875C4.6875 12.2917 4.27083 12.3958 3.75 12.3958C3.4375 12.3958 3.125 12.3958 2.8125 12.2917C3.4375 14.375 5.3125 15.8333 7.60417 15.8333C5.83333 17.1875 3.64583 18.0208 1.25 18.0208C0.833333 18.0208 0.416667 18.0208 0 17.9167C2.29167 19.375 5 20.2083 7.8125 20.2083C17.2917 20.2083 22.3958 12.3958 22.3958 5.625C22.3958 5.41667 22.3958 5.20833 22.3958 5C23.4375 4.27083 24.2708 3.33333 25 2.39583Z" transform="translate(2.5 5)" fill="#1DA1F2"/>
<mask id="mask0" mask-type="alpha" maskUnits="userSpaceOnUse" x="2" y="5" width="26" height="21">
<path fill-rule="evenodd" clip-rule="evenodd" d="M25 2.39583C24.0625 2.8125 23.125 3.125 22.0833 3.22917C23.125 2.60417 23.9583 1.5625 24.375 0.416667C23.3333 1.04167 22.2917 1.45833 21.1458 1.66667C20.2083 0.625 18.8542 0 17.3958 0C14.5833 0 12.2917 2.29167 12.2917 5.10417C12.2917 5.52083 12.2917 5.9375 12.3958 6.25C8.02083 6.04167 4.27083 3.95833 1.77083 0.833333C1.25 1.66667 1.04167 2.5 1.04167 3.4375C1.04167 5.20833 1.97917 6.77083 3.33333 7.70833C2.5 7.70833 1.66667 7.5 1.04167 7.08333C1.04167 7.08333 1.04167 7.08333 1.04167 7.1875C1.04167 9.6875 2.8125 11.7708 5.10417 12.1875C4.6875 12.2917 4.27083 12.3958 3.75 12.3958C3.4375 12.3958 3.125 12.3958 2.8125 12.2917C3.4375 14.375 5.3125 15.8333 7.60417 15.8333C5.83333 17.1875 3.64583 18.0208 1.25 18.0208C0.833333 18.0208 0.416667 18.0208 0 17.9167C2.29167 19.375 5 20.2083 7.8125 20.2083C17.2917 20.2083 22.3958 12.3958 22.3958 5.625C22.3958 5.41667 22.3958 5.20833 22.3958 5C23.4375 4.27083 24.2708 3.33333 25 2.39583Z" transform="translate(2.5 5)" fill="white"/>
</mask>
<g mask="url(#mask0)">
<path fill-rule="evenodd" clip-rule="evenodd" d="M0 0H30V30H0V0Z" fill="#021F31"/>
</g>
</svg>
